<svg width="142" height="118" viewBox="0 0 142 118" fill="none" xmlns="http://www.w3.org/2000/svg">
<g clip-path="url(#clip0)">
<path d="M124.704 100.72C147.759 77.679 147.759 40.3226 124.704 17.2819C101.649 -5.75885 64.269 -5.75884 41.2138 17.2819C18.1587 40.3226 18.1587 77.6789 41.2138 100.72C64.269 123.76 101.649 123.76 124.704 100.72Z" fill="#FEDD00"/>
<path d="M20.4445 16.4712H11.9444V40.049H8.48148V16.4712H0V13.6211H20.4445V16.4712Z" fill="#333333"/>
<path d="M41.2591 28.5006C41.2591 30.925 40.8517 33.0348 40.0369 34.83C39.222 36.6252 38.0739 38.0132 36.5739 38.957C35.0739 39.9009 33.3332 40.3821 31.3517 40.3821C29.4072 40.3821 27.685 39.9009 26.185 38.957C24.685 37.9947 23.5183 36.6437 22.685 34.867C21.8517 33.0904 21.4257 31.0546 21.4072 28.7227V26.9461C21.4072 24.5772 21.8146 22.4674 22.648 20.6537C23.4813 18.84 24.648 17.4335 26.148 16.4712C27.6665 15.5088 29.3887 15.0276 31.3331 15.0276C33.3146 15.0276 35.0554 15.5088 36.5739 16.4527C38.0924 17.415 39.2406 18.7845 40.0554 20.6167C40.8702 22.4489 41.2776 24.5402 41.2776 26.9461V28.5006H41.2591ZM38.0183 26.8905C38.0183 23.9665 37.4257 21.7086 36.2591 20.154C35.0739 18.5809 33.4443 17.8037 31.3146 17.8037C29.2591 17.8037 27.6294 18.5809 26.4443 20.154C25.2591 21.7271 24.648 23.8924 24.6109 26.6685V28.4821C24.6109 31.3137 25.2035 33.553 26.4072 35.1816C27.5924 36.8102 29.2406 37.6245 31.3331 37.6245C33.4443 37.6245 35.0739 36.8658 36.222 35.3297C37.3702 33.7936 37.9628 31.6098 37.9998 28.7412V26.8905H38.0183Z" fill="#333333"/>
<path d="M64.0376 15.3423V40.0305H60.7598V29.7961C59.5747 30.1293 58.5006 30.3699 57.5191 30.4994C56.5376 30.629 55.445 30.703 54.1858 30.703C51.371 30.703 49.2784 30.0923 47.908 28.8708C46.5376 27.6493 45.8339 25.7801 45.7969 23.2632V15.3423H49.0747V23.1707C49.0932 24.8918 49.4821 26.1318 50.2598 26.8906C51.0376 27.6493 52.3524 28.0195 54.1858 28.0195C56.3339 28.0195 58.5191 27.7234 60.7598 27.1126V15.3423H64.0376Z" fill="#333333"/>
<path d="M76.352 28.9448H73.352V40.0305H70.0928V15.3423H73.352V26.2243H75.8891L84.5187 15.3423H88.5743L79.1298 27.3162L89.2594 40.0305H85.278L76.352 28.9448Z" fill="#333333"/>
<path d="M105.907 33.5716H95.5553L93.222 40.0305H89.8701L99.3146 15.3423H102.166L111.611 40.0305H108.259L105.907 33.5716ZM96.5368 30.9251H104.944L100.74 19.3583L96.5368 30.9251Z" fill="#333333"/>
<path d="M114.834 38.0872C114.834 37.5135 115.001 37.0138 115.353 36.6437C115.704 36.255 116.223 36.07 116.908 36.07C117.593 36.07 118.13 36.255 118.482 36.6437C118.834 37.0323 119.019 37.5135 119.019 38.0872C119.019 38.6424 118.834 39.1051 118.482 39.4752C118.13 39.8454 117.593 40.0305 116.908 40.0305C116.223 40.0305 115.704 39.8454 115.353 39.4752C115.001 39.1051 114.834 38.6424 114.834 38.0872Z" fill="white"/>
<path d="M35.982 58.1487H23.2412V66.0697H29.8153C32.5745 66.1067 34.7227 66.8099 36.2782 68.198C37.8338 69.586 38.5931 71.4552 38.5931 73.8241C38.5931 76.2114 37.8153 78.0991 36.2597 79.5242C34.7042 80.9492 32.5745 81.671 29.8708 81.7265H19.7412V55.2986H36.0005V58.1487H35.982ZM23.2227 68.9382V78.8764H29.5931C31.3153 78.8764 32.6671 78.4138 33.6301 77.4884C34.5931 76.5631 35.0745 75.3231 35.0745 73.787C35.0745 72.288 34.6116 71.122 33.6857 70.2522C32.7597 69.4009 31.4449 68.9567 29.7412 68.9197H23.2227V68.9382Z" fill="#333333"/>
<path d="M46.7222 67.106H52.8703C55.4444 67.143 57.4629 67.8093 58.9073 69.0863C60.3518 70.3818 61.074 72.1214 61.074 74.3422C61.074 76.5631 60.3518 78.3397 58.8888 79.6722C57.4259 80.9862 55.4444 81.671 52.9073 81.7265H43.4629V57.0198H46.7222V67.106ZM46.7222 69.771V79.0615H52.6851C54.2962 79.0615 55.5555 78.6358 56.4629 77.766C57.3703 76.8962 57.8147 75.7488 57.8147 74.3052C57.8147 72.9172 57.3888 71.8068 56.5185 71.011C55.6481 70.2152 54.4259 69.7895 52.8333 69.771H46.7222ZM67.3147 81.7265H64.0555V57.0198H67.3147V81.7265Z" fill="#333333"/>
<path d="M89.9441 59.6848H81.9997V81.708H78.7589V59.6848H70.833V57.0198H89.9441V59.6848Z" fill="#333333"/>
<path d="M105.907 75.2676H95.5553L93.222 81.7265H89.8701L99.3146 57.0383H102.166L111.611 81.7265H108.259L105.907 75.2676ZM96.5368 72.6026H104.944L100.74 61.0543L96.5368 72.6026Z" fill="#333333"/>
<path d="M114.834 79.9683C114.834 79.3946 115.001 78.8949 115.353 78.5248C115.704 78.1361 116.223 77.9511 116.908 77.9511C117.593 77.9511 118.13 78.1361 118.482 78.5248C118.834 78.9134 119.019 79.3946 119.019 79.9683C119.019 80.5235 118.834 80.9862 118.482 81.3563C118.13 81.7265 117.593 81.9116 116.908 81.9116C116.223 81.9116 115.704 81.7265 115.353 81.3563C115.001 80.9862 114.834 80.5235 114.834 79.9683Z" fill="white"/>
</g>
<defs>
<clipPath id="clip0">
<rect width="142" height="118" fill="white"/>
</clipPath>
</defs>
</svg>
